# xmcd
#
# Track frame offsets: 
#        150
#        20553
#        44706
#        59936
#        88139
#        101464
#        127975
#        155046
#        181171
#        201819
#        231387
#        264081
#
# Disc length: 3918 seconds
#
# Revision: 0
# Processed by: cddbd v1.5.1PL2 Copyright (c) Steve Scherf et al.
# Submitted via: ExactAudioCopy v0.95b3
#
DISCID=aa0f4c0c
DTITLE=Migic Slim and The Tear Drops - Tin Pan Alley
DYEAR=2006
DGENRE=Blues
TTITLE0=Tell Me What You Got On Your Mind
TTITLE1=Cold Hearted Woman
TTITLE2=Please Don't Leave Me
TTITLE3=Born In The Country
TTITLE4=Baby Please Don't Say Goodbye
TTITLE5=She Was Walking Down Through The Park
TTITLE6=Bad Luck
TTITLE7=Texas Flood
TTITLE8=Close To You
TTITLE9=Goin' To California
TTITLE10=Tin Pan Alley
TTITLE11=Cold Women With Warm Hearts
EXTD=
EXTT0=
EXTT1=
EXTT2=
EXTT3=
EXTT4=
EXTT5=
EXTT6=
EXTT7=
EXTT8=
EXTT9=
EXTT10=
EXTT11=
PLAYORDER=
